<svg width="163" height="56" viewBox="0 0 163 56" fill="none" xmlns="http://www.w3.org/2000/svg">
<path d="M150.02 0H12.9876C12.4881 0 11.9946 3.25962e-10 11.4964 0.00298199C11.0794 0.00578198 10.6657 0.013916 10.2447 0.0207619C9.33004 0.0318244 8.41753 0.114528 7.5151 0.268155C6.61393 0.425126 5.741 0.721062 4.92582 1.14595C4.11164 1.57444 3.3677 2.13121 2.72098 2.79607C2.07087 3.45906 1.52896 4.22539 1.11607 5.06559C0.702051 5.90412 0.414965 6.80267 0.264733 7.73023C0.113073 8.65661 0.0314634 9.59368 0.0206365 10.533C0.0079958 10.9623 0.0066609 11.3929 0 11.8222V44.1821C0.0066609 44.6168 0.0079958 45.0379 0.0206365 45.4727C0.0314667 46.412 0.113076 47.349 0.264733 48.2754C0.41455 49.2035 0.701653 50.1026 1.11607 50.9414C1.52877 51.7789 2.07076 52.5421 2.72098 53.2014C3.36524 53.8692 4.10967 54.4264 4.92582 54.8516C5.741 55.2776 6.61383 55.5753 7.5151 55.7347C8.41768 55.8871 9.3301 55.9698 10.2447 55.9822C10.6657 55.9917 11.0794 55.9972 11.4964 55.9972C11.9946 56 12.4882 56 12.9876 56H150.02C150.509 56 151.007 56 151.496 55.9972C151.911 55.9972 152.337 55.9917 152.752 55.9822C153.665 55.9705 154.576 55.8878 155.476 55.7347C156.38 55.5742 157.256 55.2766 158.076 54.8516C158.891 54.4261 159.635 53.869 160.278 53.2014C160.927 52.5395 161.47 51.7769 161.888 50.9414C162.299 50.1019 162.584 49.2029 162.731 48.2754C162.883 47.3489 162.968 46.4121 162.984 45.4727C162.989 45.0379 162.989 44.6168 162.989 44.1821C163 43.6735 163 43.1676 163 42.6508V13.3507C163 12.838 163 12.3294 162.989 11.8222C162.989 11.3929 162.989 10.9623 162.984 10.533C162.968 9.59354 162.883 8.65668 162.731 7.73017C162.583 6.80315 162.299 5.90467 161.888 5.06553C161.047 3.38145 159.714 2.01061 158.076 1.14583C157.256 0.721974 156.38 0.426117 155.476 0.268029C154.576 0.113726 153.665 0.0309928 152.752 0.0205659C152.337 0.013734 151.911 0.00552998 151.496 0.00279999C151.007 0 150.509 0 150.02 0Z" fill="#A6A6A6"/>
<path d="M11.5024 54.775C11.0874 54.775 10.6824 54.7695 10.2706 54.76C9.41763 54.7486 8.56662 54.6722 7.72459 54.5316C6.93943 54.3927 6.17883 54.1341 5.46786 53.7646C4.76342 53.3981 4.12091 52.9175 3.56495 52.3413C3.00094 51.7719 2.53137 51.1115 2.17486 50.3863C1.81442 49.6563 1.56498 48.8738 1.43522 48.0662C1.29508 47.1983 1.21927 46.3208 1.20842 45.4412C1.19978 45.1459 1.18848 44.1629 1.18848 44.1629V11.8222C1.18848 11.8222 1.20052 10.8542 1.20849 10.5698C1.21887 9.69159 1.29425 8.81543 1.43396 7.94895C1.56396 7.13908 1.8136 6.35438 2.17424 5.62201C2.52943 4.89726 2.99639 4.23634 3.557 3.66489C4.11699 3.08801 4.76155 2.60499 5.4672 2.23344C6.17653 1.86508 6.93569 1.60837 7.71926 1.47192C8.56406 1.32992 9.41802 1.25314 10.274 1.24224L11.5031 1.22515H151.489L152.733 1.24293C153.581 1.25329 154.427 1.32938 155.264 1.47055C156.056 1.60871 156.823 1.86721 157.54 2.23754C158.954 2.98632 160.104 4.17097 160.83 5.62543C161.185 6.35274 161.43 7.13104 161.559 7.93391C161.7 8.80751 161.779 9.69055 161.795 10.576C161.799 10.9725 161.799 11.3984 161.799 11.8222C161.81 12.3472 161.81 12.8469 161.81 13.3507V42.6507C161.81 43.1593 161.81 43.6556 161.799 44.156C161.799 44.6113 161.799 45.0283 161.794 45.4576C161.778 46.3272 161.7 47.1945 161.561 48.0525C161.434 48.8659 161.186 49.6545 160.826 50.3905C160.467 51.1078 160 51.7625 159.442 52.3304C158.886 52.9097 158.242 53.3931 157.536 53.7619C156.821 54.1343 156.055 54.3938 155.264 54.5316C154.422 54.673 153.571 54.7493 152.718 54.76C152.319 54.7695 151.901 54.775 151.496 54.775L150.019 54.7778L11.5024 54.775Z" fill="black"/>
<path d="M33.7381 28.421C33.7679 26.046 34.9794 23.8521 36.9481 22.6082C35.7005 20.7768 33.6857 19.6573 31.5116 19.5874C29.2242 19.3407 27.0067 20.9942 25.8411 20.9942C24.6529 20.9942 22.8583 19.6119 20.9258 19.6528C18.3831 19.7372 16.0701 21.187 14.833 23.4718C12.1986 28.1596 14.1636 35.049 16.6872 38.8382C17.9497 40.6937 19.4253 42.7664 21.3561 42.6929C23.2455 42.6123 23.9511 41.4546 26.2318 41.4546C28.4912 41.4546 29.1533 42.6929 31.1232 42.6461C33.1506 42.6123 34.428 40.7824 35.6463 38.9093C36.5534 37.5872 37.2515 36.126 37.7146 34.5798C35.3066 33.5331 33.741 31.1081 33.7381 28.421ZM30.0173 17.0954C31.1227 15.7315 31.6673 13.9784 31.5354 12.2085C29.8466 12.3908 28.2866 13.2204 27.1662 14.5319C26.0599 15.826 25.4995 17.5189 25.6083 19.2379C27.3198 19.256 28.9448 18.4663 30.0173 17.0954Z" fill="white"/>
<path d="M57.6234 37.9955H51.1758L49.6274 42.6945H46.8965L53.0035 25.3094H55.8409L61.9479 42.6945H59.1704L57.6234 37.9955ZM51.8436 35.8272H56.9543L54.4349 28.201H54.3644L51.8436 35.8272ZM75.1371 36.3576C75.1371 40.2965 73.0859 42.8271 69.9904 42.8271C68.3905 42.9132 66.8833 42.0518 66.1102 40.6096H66.0516V46.8877H63.5202V30.0194H65.9705V32.1276H66.0171C66.8246 30.6943 68.3333 29.8334 69.9439 29.8868C73.0738 29.8868 75.1371 32.4297 75.1371 36.3576ZM72.5352 36.3576C72.5352 33.7915 71.2448 32.1043 69.2761 32.1043C67.342 32.1043 66.041 33.827 66.041 36.3576C66.041 38.9115 67.342 40.6219 69.2761 40.6219C71.2448 40.6219 72.5352 38.9471 72.5352 36.3576ZM88.7106 36.3576C88.7106 40.2965 86.6594 42.8271 83.564 42.8271C81.964 42.9132 80.4569 42.0518 79.6838 40.6096H79.6252V46.8877H77.0938V30.0194H79.544V32.1276H79.5906C80.3981 30.6943 81.9068 29.8334 83.5174 29.8868C86.6475 29.8868 88.7106 32.4297 88.7106 36.3576ZM86.1087 36.3576C86.1087 33.7915 84.8184 32.1043 82.8497 32.1043C80.9155 32.1043 79.6146 33.827 79.6146 36.3576C79.6146 38.9115 80.9155 40.6219 82.8497 40.6219C84.8184 40.6219 86.1087 38.9471 86.1087 36.3576ZM97.6817 37.8506C97.8692 39.5746 99.4988 40.7066 101.726 40.7066C103.859 40.7066 105.394 39.5746 105.394 38.0201C105.394 36.6707 104.468 35.8627 102.276 35.309L100.084 34.7662C96.978 33.9951 95.536 32.5021 95.536 30.0795C95.536 27.0799 98.0794 25.0195 101.691 25.0195C105.265 25.0195 107.716 27.0799 107.798 30.0795H105.243C105.09 28.3445 103.694 27.2973 101.655 27.2973C99.6158 27.2973 98.2204 28.3568 98.2204 29.899C98.2204 31.1281 99.1116 31.8513 101.292 32.405L103.155 32.8753C106.626 33.7189 108.068 35.1517 108.068 37.6946C108.068 40.9471 105.547 42.9843 101.538 42.9843C97.7867 42.9843 95.254 40.995 95.0904 37.8505L97.6817 37.8506ZM113.531 27.0198V30.0194H115.876V32.0797H113.531V39.0674C113.531 40.1529 114.001 40.6588 115.032 40.6588C115.31 40.6538 115.588 40.6337 115.864 40.5986V42.6466C115.401 42.7356 114.93 42.776 114.458 42.7669C111.962 42.7669 110.988 41.8031 110.988 39.3449V32.0797H109.195V30.0194H110.988V27.0198H113.531ZM117.235 36.3576C117.235 32.3696 119.52 29.8635 123.084 29.8635C126.659 29.8635 128.934 32.3695 128.934 36.3576C128.934 40.3567 126.671 42.8518 123.084 42.8518C119.497 42.8518 117.235 40.3566 117.235 36.3576ZM126.355 36.3576C126.355 33.6219 125.135 32.0073 123.084 32.0073C121.032 32.0073 119.814 33.6342 119.814 36.3576C119.814 39.1043 121.032 40.7067 123.084 40.7067C125.135 40.7067 126.355 39.1043 126.355 36.3576ZM131.021 30.0194H133.435V32.1768H133.494C133.831 30.788 135.069 29.8321 136.46 29.8867C136.752 29.8857 137.043 29.9183 137.328 29.9838V32.4174C136.959 32.3017 136.575 32.2486 136.19 32.2602C135.446 32.2292 134.726 32.534 134.219 33.0946C133.711 33.6553 133.468 34.4158 133.552 35.1764V42.6945H131.021V30.0194ZM148.999 38.9717C148.658 41.2726 146.478 42.8517 143.689 42.8517C140.101 42.8517 137.874 40.3812 137.874 36.4178C137.874 32.442 140.113 29.8635 143.582 29.8635C146.994 29.8635 149.14 32.2725 149.14 36.1156V37.007H140.43V37.1643C140.348 38.1079 140.665 39.042 141.3 39.7289C141.935 40.4158 142.826 40.7893 143.747 40.7545C144.976 40.8728 146.134 40.1478 146.595 38.9717L148.999 38.9717ZM140.442 35.1887H146.607C146.653 34.3408 146.353 33.5116 145.779 32.9009C145.204 32.2903 144.408 31.9535 143.582 31.9717C142.75 31.9666 141.95 32.3036 141.36 32.9076C140.77 33.5117 140.439 34.3329 140.442 35.1887Z" fill="white"/>
<path d="M51.5247 12.2235C52.5993 12.1442 53.6519 12.5645 54.3928 13.3685C55.1336 14.1726 55.4846 15.2757 55.3491 16.3743C55.3491 19.043 53.9457 20.5771 51.5247 20.5771H48.5889V12.2235H51.5247ZM49.8512 19.3957H51.3837C52.1517 19.4429 52.8995 19.1319 53.4194 18.5491C53.9394 17.9662 54.1762 17.1736 54.064 16.3913C54.168 15.6122 53.9278 14.8262 53.4092 14.2481C52.8905 13.67 52.1476 13.3604 51.3837 13.404H49.8512V19.3957ZM56.775 17.4222C56.6699 16.2922 57.197 15.1987 58.1355 14.6001C59.0739 14.0016 60.2613 14.0016 61.1997 14.6001C62.1382 15.1987 62.6653 16.2922 62.5602 17.4222C62.6673 18.5534 62.1407 19.6491 61.2014 20.2489C60.2621 20.8487 59.0731 20.8487 58.1338 20.2489C57.1946 19.6491 56.6679 18.5534 56.775 17.4222ZM61.3151 17.4222C61.3151 16.0557 60.7178 15.2566 59.6696 15.2566C58.6174 15.2566 58.0255 16.0557 58.0255 17.4222C58.0255 18.7997 58.6174 19.5926 59.6696 19.5926C60.7178 19.5926 61.3151 18.7942 61.3151 17.4222Z" fill="white"/>
<path d="M70.2507 20.5773H68.9948L67.728 15.9335H67.6313L66.37 20.5773H65.1264L63.4346 14.2731H64.6632L65.7611 19.0835H65.8524L67.1137 14.2731H68.2743L69.5356 19.0835H69.631L70.7248 14.2731H71.9357L70.2507 20.5773Z" fill="white"/>
<path d="M73.3574 14.2729H74.5227V15.2743H74.6132C74.9277 14.537 75.6628 14.0859 76.4435 14.1512C77.0481 14.1044 77.6405 14.3428 78.0535 14.7989C78.4665 15.2551 78.6553 15.8795 78.5666 16.4959V20.5768H77.3561V16.8083C77.3561 15.7952 76.9277 15.2914 76.0325 15.2914C75.6224 15.2718 75.2245 15.4372 74.943 15.7442C74.6615 16.0513 74.5245 16.4694 74.5679 16.8889V20.5769H73.3574V14.2729Z" fill="white"/>
<path d="M80.4941 11.8119H81.7037V20.5773H80.4941V11.8119Z" fill="white"/>
<path d="M83.3897 17.4221C83.2846 16.2921 83.8118 15.1985 84.7503 14.6C85.6888 14.0015 86.8763 14.0015 87.8148 14.6C88.7533 15.1985 89.2806 16.2921 89.1755 17.4221C89.2825 18.5534 88.7557 19.649 87.8164 20.2488C86.8771 20.8486 85.688 20.8486 84.7487 20.2488C83.8094 19.649 83.2826 18.5534 83.3897 17.4221ZM87.9297 17.4221C87.9297 16.0556 87.3324 15.2565 86.2842 15.2565C85.232 15.2565 84.6401 16.0556 84.6401 17.4222C84.6401 18.7996 85.2321 19.5926 86.2842 19.5926C87.3324 19.5926 87.9297 18.7941 87.9297 17.4221ZM90.4498 18.7941C90.4498 17.6593 91.2719 17.0052 92.7312 16.9122L94.3926 16.8137V16.2696C94.3926 15.6038 93.9643 15.2278 93.1369 15.2278C92.4611 15.2278 91.9929 15.4828 91.8585 15.9285H90.6866C90.8103 14.8457 91.8013 14.1512 93.1927 14.1512C94.7305 14.1512 95.5978 14.938 95.5978 16.2696V20.5769H94.4325V19.691H94.3367C93.941 20.338 93.2372 20.7161 92.4944 20.6808C91.9737 20.7365 91.4544 20.5631 91.0648 20.2037C90.6753 19.8442 90.4519 19.3322 90.4498 18.7941ZM94.3926 18.2554V17.7284L92.8948 17.8268C92.0501 17.8849 91.667 18.1802 91.667 18.736C91.667 19.3034 92.1459 19.6336 92.8044 19.6336C93.1942 19.6741 93.5833 19.5503 93.8827 19.2905C94.1821 19.0308 94.3661 18.6572 94.3926 18.2554ZM97.1887 17.4221C97.1887 15.4302 98.1851 14.1682 99.7348 14.1682C100.517 14.1312 101.25 14.5621 101.616 15.2742H101.706V11.8119H102.917V20.5769H101.757V19.5809H101.661C101.268 20.2871 100.526 20.7108 99.7348 20.6808C98.1744 20.6809 97.1887 19.4189 97.1887 17.4221ZM98.4392 17.4221C98.4392 18.7593 99.0524 19.5638 100.078 19.5638C101.098 19.5638 101.729 18.7476 101.729 17.4276C101.729 16.1137 101.092 15.2859 100.078 15.2859C99.059 15.2859 98.4391 16.096 98.4391 17.4221H98.4392ZM107.925 17.4221C107.82 16.2922 108.347 15.1986 109.285 14.6001C110.224 14.0016 111.411 14.0016 112.35 14.6001C113.288 15.1986 113.815 16.2922 113.71 17.4221C113.817 18.5533 113.291 19.649 112.351 20.2488C111.412 20.8486 110.223 20.8486 109.284 20.2488C108.344 19.649 107.818 18.5533 107.925 17.4221ZM112.465 17.4221C112.465 16.0556 111.868 15.2565 110.82 15.2565C109.767 15.2565 109.175 16.0556 109.175 17.4222C109.175 18.7996 109.767 19.5926 110.82 19.5926C111.868 19.5926 112.465 18.7941 112.465 17.4221ZM115.334 14.2728H116.5V15.2743H116.59C116.905 14.5369 117.64 14.0859 118.42 14.1511C119.025 14.1044 119.617 14.3428 120.03 14.7989C120.443 15.255 120.632 15.8795 120.543 16.4958V20.5768H119.333V16.8083C119.333 15.7952 118.905 15.2914 118.009 15.2914C117.599 15.2717 117.201 15.4371 116.92 15.7442C116.638 16.0513 116.501 16.4694 116.545 16.8889V20.5769H115.334V14.2728ZM127.383 12.7033V14.3015H128.712V15.3495H127.383V18.5911C127.383 19.2514 127.648 19.5406 128.251 19.5406C128.405 19.5401 128.559 19.5305 128.712 19.5119V20.5482C128.495 20.5882 128.275 20.6094 128.054 20.6118C126.708 20.6118 126.172 20.1251 126.172 18.9096V15.3494H125.198V14.3015H126.172V12.7033H127.383ZM130.366 11.8119H131.566V15.2859H131.661C131.991 14.5421 132.739 14.0905 133.532 14.1566C134.133 14.123 134.717 14.3666 135.126 14.8211C135.534 15.2756 135.724 15.8936 135.644 16.5068V20.5769H134.432V16.8137C134.432 15.8068 133.976 15.2968 133.121 15.2968C132.7 15.2613 132.285 15.4187 131.987 15.7268C131.689 16.035 131.539 16.4625 131.576 16.8951V20.5769H130.366L130.366 11.8119ZM142.702 18.8748C142.363 20.0639 141.243 20.8322 140.044 20.6986C139.227 20.7208 138.441 20.3723 137.895 19.7457C137.349 19.1191 137.099 18.2777 137.211 17.4447C137.102 16.6094 137.351 15.7666 137.894 15.1347C138.437 14.5028 139.219 14.144 140.039 14.1511C141.746 14.1511 142.775 15.3495 142.775 17.3291V17.7633H138.444V17.833C138.406 18.3008 138.561 18.7635 138.872 19.1073C139.183 19.4512 139.621 19.6442 140.078 19.639C140.67 19.7121 141.246 19.4101 141.537 18.8747L142.702 18.8748ZM138.444 16.8431H141.542C141.573 16.4153 141.427 15.994 141.139 15.6829C140.852 15.3719 140.45 15.2002 140.032 15.21C139.61 15.2046 139.202 15.3749 138.903 15.6824C138.604 15.9899 138.439 16.4084 138.444 16.8431H138.444Z" fill="white"/>
</svg>
