<svg width="32" height="32" viewBox="0 0 32 32" fill="none" xmlns="http://www.w3.org/2000/svg">
<path d="M26.4604 7.45916C26.4604 8.51956 25.6008 9.37913 24.5404 9.37913C23.48 9.37913 22.6204 8.51956 22.6204 7.45916C22.6204 6.39876 23.48 5.53919 24.5404 5.53919C25.6008 5.53919 26.4604 6.39876 26.4604 7.45916Z" fill="white"/>
<path fill-rule="evenodd" clip-rule="evenodd" d="M15.9999 7.78379C11.4622 7.78379 7.78369 11.4623 7.78369 16C7.78369 20.5377 11.4622 24.2162 15.9999 24.2162C20.5376 24.2162 24.2161 20.5377 24.2161 16C24.2161 11.4623 20.5376 7.78379 15.9999 7.78379ZM15.9999 21.3333C13.0544 21.3333 10.6666 18.9455 10.6666 16C10.6666 13.0545 13.0544 10.6667 15.9999 10.6667C18.9454 10.6667 21.3333 13.0545 21.3333 16C21.3333 18.9455 18.9454 21.3333 15.9999 21.3333Z" fill="white"/>
<path fill-rule="evenodd" clip-rule="evenodd" d="M9.40321 0.0962842C11.1097 0.0184185 11.6546 0 15.9999 0C20.3453 0 20.8901 0.0184185 22.5967 0.0962842C24.2998 0.173959 25.4628 0.444457 26.4806 0.84001C27.5327 1.24884 28.425 1.79593 29.3145 2.68541C30.204 3.57496 30.7511 4.46724 31.1599 5.51932C31.5555 6.5371 31.826 7.70013 31.9037 9.40321C31.9815 11.1098 32 11.6546 32 15.9999C32 20.3453 31.9815 20.8902 31.9037 22.5967C31.826 24.2998 31.5555 25.4629 31.1599 26.4806C30.7511 27.5327 30.204 28.425 29.3145 29.3145C28.425 30.204 27.5327 30.7511 26.4806 31.16C25.4628 31.5555 24.2998 31.826 22.5967 31.9037C20.8901 31.9815 20.3453 32 15.9999 32C11.6546 32 11.1097 31.9815 9.40321 31.9037C7.70013 31.826 6.5371 31.5555 5.51932 31.16C4.46724 30.7511 3.5749 30.204 2.68541 29.3145C1.79587 28.425 1.24884 27.5326 0.839946 26.4806C0.444394 25.4629 0.173959 24.2998 0.0962207 22.5967C0.018355 20.8902 0 20.3453 0 15.9999C0 11.6546 0.018355 11.1098 0.0962207 9.40321C0.173959 7.70013 0.444394 6.5371 0.839946 5.51932C1.24884 4.46724 1.79587 3.57496 2.68541 2.68541C3.5749 1.79593 4.46724 1.24884 5.51932 0.84001C6.5371 0.444457 7.70013 0.173959 9.40321 0.0962842ZM22.4653 2.97611C20.7781 2.89913 20.2721 2.88287 15.9999 2.88287C11.7277 2.88287 11.2217 2.89913 9.53455 2.97611C7.97463 3.04731 7.12738 3.30796 6.56358 3.52708C5.81681 3.81733 5.28375 4.16404 4.7239 4.72396C4.16404 5.28382 3.81726 5.81681 3.52701 6.56365C3.30796 7.12745 3.04731 7.97463 2.97611 9.53461C2.89913 11.2217 2.88287 11.7278 2.88287 15.9999C2.88287 20.2721 2.89913 20.7782 2.97611 22.4653C3.04731 24.0253 3.30796 24.8725 3.52701 25.4363C3.81726 26.1831 4.16404 26.7161 4.7239 27.276C5.28375 27.8359 5.81681 28.1826 6.56358 28.4729C7.12738 28.6919 7.97463 28.9526 9.53461 29.0238C11.2215 29.1008 11.7274 29.1171 15.9999 29.1171C20.2725 29.1171 20.7784 29.1008 22.4653 29.0238C24.0253 28.9526 24.8724 28.6919 25.4362 28.4729C26.1831 28.1826 26.7161 27.8359 27.276 27.276C27.8359 26.7161 28.1826 26.1831 28.4729 25.4363C28.6919 24.8725 28.9526 24.0253 29.0238 22.4653C29.1007 20.7782 29.117 20.2721 29.117 15.9999C29.117 11.7278 29.1007 11.2217 29.0238 9.53461C28.9526 7.97463 28.6919 7.12745 28.4729 6.56365C28.1826 5.81681 27.8359 5.28382 27.276 4.7239C26.7161 4.16404 26.1831 3.81733 25.4362 3.52708C24.8724 3.30796 24.0253 3.04731 22.4653 2.97611Z" fill="white"/>
</svg>
