<svg width="24" height="22" viewBox="0 0 24 22" fill="none" xmlns="http://www.w3.org/2000/svg">
<path d="M5.9877 6.62778C5.61294 6.32861 5.0666 6.38989 4.76742 6.76466C4.46825 7.13943 4.52953 7.68577 4.9043 7.98494L9.88481 11.9608L9.8908 11.9655C11.1399 12.9449 12.8923 12.9449 14.1414 11.9656L19.0882 7.98268C19.4618 7.68194 19.5208 7.13535 19.22 6.76184C18.9193 6.38832 18.3727 6.32931 17.9992 6.63005L13.0659 10.602C12.4471 11.0843 11.5834 11.0839 10.965 10.6011L5.9877 6.62778Z" fill="white"/>
<path fill-rule="evenodd" clip-rule="evenodd" d="M6.527 0C2.57805 0 0 3.23295 0 6.99732V14.5547C0 18.319 2.57805 21.552 6.527 21.552L17.4418 21.5521L17.4515 21.5519C19.2645 21.5316 20.9889 20.7652 22.2235 19.4329C23.4519 18.1073 24.089 16.3367 23.99 14.5301V7.02191C24.089 5.21528 23.4519 3.44467 22.2235 2.11908C20.9889 0.786853 19.2645 0.0203342 17.4515 0H6.527ZM1.73656 6.99732C1.73656 4.00375 3.71516 1.73656 6.527 1.73656H17.4367C18.7696 1.75279 20.0391 2.31678 20.9498 3.29946C21.8617 4.28348 22.3339 5.6014 22.2549 6.94639C22.2539 6.96335 22.2534 6.98033 22.2534 6.99732V14.5547C22.2534 14.5717 22.2539 14.5887 22.2549 14.6056C22.3339 15.9506 21.8617 17.2685 20.9498 18.2525C20.0391 19.2352 18.7696 19.7992 17.4367 19.8154H6.527C3.71516 19.8154 1.73656 17.5483 1.73656 14.5547V6.99732Z" fill="white"/>
</svg>
