<svg width="184" height="56" viewBox="0 0 184 56" fill="none" xmlns="http://www.w3.org/2000/svg">
<path d="M176.549 0H6.84298C3.0637 0 0 3.13401 0 7V49C0 52.866 3.0637 56 6.84298 56H176.549C180.328 56 183.392 52.866 183.392 49V7C183.392 3.13401 180.328 0 176.549 0Z" fill="black"/>
<path d="M177.185 1.12C180.347 1.12 182.91 3.75257 182.91 7V49C182.91 52.2474 180.347 54.88 177.185 54.88H6.81482C3.65329 54.88 1.09037 52.2474 1.09037 49V7C1.09037 3.75257 3.65329 1.12 6.81482 1.12H177.185ZM177.185 0H6.81482C3.0511 0 0 3.13401 0 7V49C0 52.866 3.0511 56 6.81482 56H177.185C180.949 56 184 52.866 184 49V7C184 3.13401 180.949 0 177.185 0Z" fill="#A6A6A6"/>
<path d="M64.6331 14.3359C64.68 15.3737 64.3105 16.3857 63.6109 17.136C62.8292 17.9701 61.7389 18.4232 60.6124 18.382C58.8846 18.3681 57.3333 17.2917 56.6757 15.6504C56.0182 14.0092 56.3825 12.123 57.6002 10.8639C58.3915 10.0342 59.4819 9.57804 60.6124 9.60392C61.1886 9.60195 61.7591 9.72106 62.2888 9.95392C62.782 10.1583 63.2211 10.4797 63.57 10.8919L62.8477 11.6339C62.2961 10.9601 61.4682 10.5919 60.6124 10.6399C59.7522 10.6356 58.9273 10.9914 58.3281 11.6254C57.7289 12.2594 57.407 13.1168 57.4367 13.9999C57.4184 15.3344 58.1836 16.5491 59.3761 17.0789C60.5686 17.6087 61.9544 17.3495 62.8885 16.4219C63.3079 15.9551 63.5498 15.3488 63.57 14.7139H60.6124V13.7059H64.5786C64.615 13.9139 64.6332 14.1247 64.6331 14.3359ZM70.8755 10.8359H67.1955V13.4959H70.5484V14.5039H67.1955V17.164H70.8755V18.2H66.1051V9.79992H70.8755V10.8359ZM75.346 18.2H74.2965V10.8359H72.0068V9.79992H77.6903V10.8359H75.346V18.2ZM81.6974 18.2V9.79992H82.7469V18.2H81.6974ZM87.4083 18.2H86.3588V10.8359H84.069V9.79992H89.6844V10.8359H87.4083V18.2ZM100.329 17.108C98.6704 18.8023 95.9908 18.8023 94.3321 17.108C92.7242 15.3597 92.7242 12.6262 94.3321 10.8779C95.1253 10.0572 96.2047 9.59557 97.3306 9.59557C98.4566 9.59557 99.5359 10.0572 100.329 10.8779C101.944 12.6234 101.944 15.3625 100.329 17.108ZM95.109 16.4079C96.3375 17.6645 98.3238 17.6645 99.5523 16.4079C100.759 15.0418 100.759 12.9581 99.5523 11.5919C98.3238 10.3353 96.3375 10.3353 95.109 11.5919C93.9025 12.9581 93.9025 15.0418 95.109 16.4079ZM103.014 18.2V9.79992H104.295L108.275 16.3379V9.79992H109.325V18.2H108.234L104.077 11.3539V18.2H103.014Z" fill="white" stroke="white" stroke-width="0.266667"/>
<path d="M92.872 30.45C89.6764 30.4654 87.0967 33.1362 87.1066 36.4186C87.1167 39.701 89.7127 42.3551 92.9083 42.35C96.1039 42.3448 98.6918 39.6825 98.6918 36.4C98.7143 34.8101 98.1074 33.279 97.0103 32.1573C95.9131 31.0356 94.4197 30.4195 92.872 30.45ZM92.872 40.012C91.4316 40.1155 90.0761 39.3041 89.4537 37.9658C88.8313 36.6276 89.0686 35.0346 90.052 33.9487C91.0354 32.8627 92.5651 32.5047 93.9095 33.0457C95.2538 33.5867 96.1396 34.9169 96.1431 36.4C96.1874 37.3277 95.8651 38.2346 95.2492 38.9147C94.6333 39.5948 93.776 39.9905 92.872 40.012ZM80.1828 30.45C76.9854 30.4577 74.3988 33.125 74.4038 36.4093C74.4089 39.6936 77.0036 42.3526 80.201 42.35C83.3983 42.3474 85.989 39.6843 85.989 36.4C86.0115 34.8101 85.4046 33.279 84.3075 32.1573C83.2103 31.0356 81.7169 30.4195 80.1692 30.45H80.1828ZM80.1828 40.012C78.7417 40.1213 77.3822 39.3139 76.7554 37.9765C76.1286 36.6392 76.3622 35.044 77.3442 33.9552C78.3262 32.8663 79.8567 32.5053 81.2028 33.0452C82.5488 33.585 83.4364 34.9157 83.4403 36.4C83.4846 37.3277 83.1623 38.2346 82.5464 38.9147C81.9305 39.5948 81.0732 39.9905 80.1692 40.012H80.1828ZM65.0675 32.284V34.804H70.9555C70.8632 35.9909 70.3829 37.1109 69.5926 37.982C68.4014 39.2283 66.7529 39.8995 65.0539 39.83C61.4407 39.83 58.5117 36.8214 58.5117 33.11C58.5117 29.3986 61.4407 26.39 65.0539 26.39C66.7137 26.3622 68.3165 27.0117 69.5108 28.196L71.2418 26.418C69.6129 24.7238 67.3856 23.7793 65.0675 23.8C61.7678 23.6681 58.6622 25.4011 56.9741 28.3165C55.286 31.2318 55.286 34.8622 56.9741 37.7775C58.6622 40.6929 61.7678 42.4259 65.0675 42.294C67.4279 42.4036 69.719 41.4592 71.3508 39.704C72.7787 38.0925 73.5411 35.9741 73.477 33.796C73.4814 33.2654 73.4358 32.7356 73.3407 32.214L65.0675 32.284ZM126.823 34.244C126.096 32.0449 124.122 30.5355 121.862 30.45C120.355 30.447 118.914 31.0848 117.882 32.2119C116.849 33.3391 116.316 34.8551 116.41 36.4C116.377 37.981 116.971 39.5081 118.056 40.6302C119.14 41.7524 120.623 42.3732 122.162 42.35C124.099 42.3607 125.911 41.372 126.987 39.718L125.011 38.318C124.411 39.3455 123.329 39.973 122.162 39.97C120.954 40.0173 119.84 39.3011 119.354 38.164L127.11 34.874L126.823 34.244ZM118.918 36.232C118.862 35.3572 119.152 34.4962 119.721 33.843C120.29 33.1898 121.091 32.7995 121.944 32.76C122.843 32.6992 123.69 33.195 124.097 34.02L118.918 36.232ZM112.621 42H115.17V24.5H112.621V42ZM108.451 31.78H108.355C107.578 30.8877 106.468 30.3784 105.302 30.38C102.208 30.5341 99.7772 33.1555 99.7772 36.337C99.7772 39.5185 102.208 42.1399 105.302 42.294C106.471 42.3142 107.589 41.8016 108.355 40.894H108.437V41.748C108.437 44.03 107.251 45.248 105.343 45.248C104.043 45.2168 102.891 44.3815 102.426 43.134L100.205 44.086C101.06 46.2236 103.093 47.6138 105.343 47.6001C108.328 47.6001 110.795 45.794 110.795 41.398V30.8H108.451V31.78ZM105.534 40.012C103.711 39.847 102.314 38.2792 102.314 36.4C102.314 34.5208 103.711 32.953 105.534 32.788C106.415 32.8344 107.24 33.2441 107.822 33.9241C108.405 34.6041 108.695 35.4969 108.628 36.4C108.703 37.3073 108.413 38.2066 107.826 38.8889C107.239 39.5712 106.406 39.977 105.52 40.012H105.534ZM138.763 24.5H132.671V42H135.219V35.364H138.777C140.757 35.5101 142.65 34.5079 143.683 32.767C144.717 31.026 144.717 28.838 143.683 27.097C142.65 25.3561 140.757 24.3539 138.777 24.5H138.763ZM138.763 32.9H135.206V26.936H138.817C140.432 26.936 141.741 28.2805 141.741 29.939C141.741 31.5975 140.432 32.942 138.817 32.942L138.763 32.9ZM154.478 30.38C152.582 30.2636 150.799 31.3139 149.939 33.054L152.202 34.02C152.658 33.1571 153.566 32.652 154.519 32.732C155.172 32.6536 155.829 32.8482 156.342 33.272C156.854 33.6958 157.18 34.3134 157.245 34.986V35.168C156.426 34.7228 155.513 34.492 154.587 34.496C152.147 34.496 149.68 35.896 149.68 38.43C149.729 39.5216 150.205 40.5466 151.001 41.2717C151.797 41.9969 152.845 42.3606 153.905 42.28C155.213 42.3765 156.467 41.7322 157.177 40.6H157.258V42H159.712V35.266C159.712 32.2 157.449 30.422 154.546 30.422L154.478 30.38ZM154.164 39.97C153.333 39.97 152.174 39.536 152.174 38.486C152.174 37.086 153.619 36.624 154.9 36.624C155.71 36.6035 156.51 36.8065 157.217 37.212C157.041 38.7792 155.768 39.9736 154.233 40.012L154.164 39.97ZM168.653 30.8L165.736 38.388H165.654L162.628 30.8H159.902L164.441 41.412L161.852 47.306H164.509L171.488 30.8H168.653ZM145.741 42H148.29V24.5H145.741V42Z" fill="white"/>
<path d="M14.2295 10.556C13.7853 11.1035 13.561 11.8045 13.6025 12.516V43.484C13.561 44.1955 13.7853 44.8964 14.2295 45.444L14.3249 45.542L31.212 28.21V27.804L14.3249 10.458L14.2295 10.556Z" fill="url(#paint0_linear)"/>
<path d="M36.8001 33.992L31.2119 28.21V27.804L36.8001 22.008L36.9227 22.078L43.6149 25.984C45.523 27.09 45.523 28.91 43.6149 30.03L36.95 33.922L36.8001 33.992Z" fill="url(#paint1_linear)"/>
<path d="M36.9647 33.9079L31.213 27.9999L14.2305 45.4439C15.0329 46.1685 16.2237 46.2038 17.0654 45.5279L36.9783 33.9079" fill="url(#paint2_linear)"/>
<path d="M36.9627 22.0919L17.0498 10.472C16.2081 9.79614 15.0172 9.83142 14.2148 10.556L31.211 27.9999L36.9627 22.0919Z" fill="url(#paint3_linear)"/>
<path opacity="0.2" d="M36.8011 33.782L17.0518 45.3319C16.2436 45.9526 15.1341 45.9526 14.3259 45.3319L14.2305 45.4299L14.3259 45.5279C15.1325 46.1533 16.2451 46.1533 17.0518 45.5279L36.9647 33.908L36.8011 33.782Z" fill="black"/>
<path opacity="0.12" d="M14.2295 45.248C13.7853 44.7004 13.561 43.9995 13.6025 43.288V43.498C13.561 44.2095 13.7853 44.9104 14.2295 45.458L14.3249 45.36L14.2295 45.248ZM43.615 29.8199L36.8002 33.782L36.9228 33.908L43.615 30.016C44.3879 29.643 44.9077 28.8741 44.9779 27.9999C44.8226 28.7907 44.3192 29.4629 43.615 29.8199Z" fill="black"/>
<path opacity="0.25" d="M17.0508 10.668L43.6149 26.18C44.3192 26.537 44.8225 27.2092 44.9779 27.9999C44.9076 27.1258 44.3878 26.3569 43.6149 25.984L17.0508 10.472C15.1426 9.36597 13.5889 10.29 13.5889 12.53V12.74C13.6298 10.486 15.1563 9.56197 17.0508 10.668Z" fill="white"/>
<defs>
<linearGradient id="paint0_linear" x1="24.3324" y1="12.194" x2="9.51631" y2="26.7377" gradientUnits="userSpaceOnUse">
<stop stop-color="#00A0FF"/>
<stop offset="0.01" stop-color="#00A1FF"/>
<stop offset="0.26" stop-color="#00BEFF"/>
<stop offset="0.51" stop-color="#00D2FF"/>
<stop offset="0.76" stop-color="#00DFFF"/>
<stop offset="1" stop-color="#00E3FF"/>
</linearGradient>
<linearGradient id="paint1_linear" x1="46.1092" y1="28" x2="13.1391" y2="28" gradientUnits="userSpaceOnUse">
<stop stop-color="#FFE000"/>
<stop offset="0.41" stop-color="#FFBD00"/>
<stop offset="0.78" stop-color="#FFA500"/>
<stop offset="1" stop-color="#FF9C00"/>
</linearGradient>
<linearGradient id="paint2_linear" x1="33.8434" y1="33.5392" x2="8.49839" y2="58.4073" gradientUnits="userSpaceOnUse">
<stop stop-color="#FF3A44"/>
<stop offset="1" stop-color="#C31162"/>
</linearGradient>
<linearGradient id="paint3_linear" x1="9.94871" y1="7.76446" x2="21.2616" y2="18.8692" gradientUnits="userSpaceOnUse">
<stop stop-color="#32A071"/>
<stop offset="0.07" stop-color="#2DA771"/>
<stop offset="0.48" stop-color="#15CF74"/>
<stop offset="0.8" stop-color="#06E775"/>
<stop offset="1" stop-color="#00F076"/>
</linearGradient>
</defs>
</svg>
