<svg width="32" height="32" viewBox="0 0 32 32" fill="none" xmlns="http://www.w3.org/2000/svg">
<rect opacity="0.01" width="32" height="32" fill="white"/>
<path fill-rule="evenodd" clip-rule="evenodd" d="M10.0639 29.6C22.1398 29.6 28.7436 19.4441 28.7436 10.6377C28.7436 10.3491 28.7378 10.0618 28.7249 9.77611C30.0067 8.83551 31.1209 7.6618 32 6.32542C30.8237 6.85581 29.5576 7.21339 28.2298 7.37464C29.5852 6.54968 30.6259 5.24409 31.1167 3.68799C29.8478 4.45136 28.4434 5.0067 26.948 5.30555C25.7499 4.01023 24.0436 3.19995 22.1556 3.19995C18.5297 3.19995 15.5894 6.1847 15.5894 9.86407C15.5894 10.3872 15.6471 10.8956 15.7597 11.3837C10.3035 11.1052 5.46496 8.45311 2.22733 4.42056C1.66298 5.40521 1.33811 6.54968 1.33811 7.7703C1.33811 10.0825 2.49728 12.1236 4.25971 13.3178C3.18285 13.2841 2.17101 12.9837 1.28614 12.484C1.28474 12.5118 1.28474 12.5397 1.28474 12.5689C1.28474 15.7971 3.54803 18.4917 6.55194 19.1027C6.00051 19.255 5.42029 19.3373 4.82125 19.3373C4.39821 19.3373 3.98682 19.2947 3.58707 19.2169C4.42278 21.8648 6.84634 23.7916 9.72032 23.8459C7.47277 25.6335 4.64218 26.6988 1.56621 26.6988C1.03642 26.6988 0.51392 26.668 0 26.6064C2.90573 28.4967 6.35558 29.6 10.0639 29.6Z" fill="white"/>
</svg>
